# xmcd CD database file
#
# Track frame offsets:
#	150
#	19432
#	30510
#	44137
#	57760
#	76600
#	90612
#	108070
#	124340
#	136230
#	153465
#	167935
#	182030
#	204687
#
# Disc length: 2966 seconds
#
# Revision: 4
# Processed by: cddbd v1.5PL3 Copyright (c) Steve Scherf et al.
# Submitted via: CDex 1.51
#
DISCID=b90b940e
DTITLE=Robert Ward and The Black Top All-Stars - Fear No Evil
DYEAR=1990
DGENRE=Blues
TTITLE0=Your Love is Amazing
TTITLE1=Born to Entertain
TTITLE2=Forgive Me, Darling
TTITLE3=Your Love is Real
TTITLE4=Something for Nothing
TTITLE5=Fear No Evil
TTITLE6=Trying My Best
TTITLE7=Strictly Reserved for You
TTITLE8=So Tired of Wandering
TTITLE9=Blessings
TTITLE10=Newborn Music
TTITLE11=K-Po-Kee
TTITLE12=Lord, Have Mercy on Me
TTITLE13=Dry Spell
EXTD=YEAR: 1990
EXTT0=
EXTT1=
EXTT2=
EXTT3=
EXTT4=
EXTT5=
EXTT6=
EXTT7=
EXTT8=
EXTT9=
EXTT10=
EXTT11=
EXTT12=
EXTT13=
PLAYORDER=
